<?xml version="1.0" encoding="UTF-8"?>
<svg xmlns="http://www.w3.org/2000/svg" xmlns:xlink="http://www.w3.org/1999/xlink" width="230px" height="40px" viewBox="0 0 229 40" version="1.1">
<g id="surface1">
<path style=" stroke:none;fill-rule:nonzero;fill:rgb(0%,37.647059%,64.705882%);fill-opacity:1;" d="M 188.984375 0 L 227.117188 0 C 228.058594 0.0742188 228.851562 0.855469 228.976562 1.789062 L 228.976562 38.117188 C 228.898438 39.078125 228.089844 39.890625 227.132812 39.976562 L 188.996094 39.976562 C 187.972656 39.90625 187.101562 38.980469 187.125 37.949219 C 187.121094 25.976562 187.125 14.003906 187.125 2.035156 C 187.097656 1 187.964844 0.078125 188.984375 0 M 195.996094 8.546875 C 194.945312 8.765625 194.210938 9.800781 194.226562 10.855469 C 194.21875 16.824219 194.226562 22.792969 194.222656 28.757812 C 194.210938 29.277344 194.308594 29.808594 194.578125 30.261719 C 195.476562 31.777344 198.070312 31.757812 198.914062 30.199219 C 199.335938 29.46875 199.222656 28.605469 199.238281 27.804688 C 199.234375 22.195312 199.238281 16.585938 199.234375 10.980469 C 199.242188 10.269531 198.992188 9.527344 198.449219 9.054688 C 197.789062 8.46875 196.828125 8.351562 195.996094 8.546875 M 202.5 9.570312 C 201.742188 10.300781 201.742188 11.660156 202.5 12.386719 C 203.027344 12.894531 203.78125 13.085938 204.492188 13.09375 C 206.085938 13.09375 207.679688 13.089844 209.273438 13.09375 C 209.273438 18.320312 209.273438 23.542969 209.273438 28.769531 C 209.265625 29.289062 209.363281 29.824219 209.636719 30.273438 C 210.519531 31.738281 212.984375 31.757812 213.898438 30.316406 C 214.214844 29.820312 214.304688 29.21875 214.289062 28.640625 C 214.285156 23.457031 214.285156 18.277344 214.289062 13.09375 C 215.578125 13.09375 216.871094 13.09375 218.160156 13.09375 C 219.066406 13.105469 220.0625 13.148438 220.828125 12.582031 C 221.765625 11.953125 221.898438 10.476562 221.144531 9.652344 C 220.605469 9.0625 219.777344 8.855469 219.003906 8.859375 C 214.207031 8.859375 209.410156 8.859375 204.617188 8.859375 C 203.863281 8.851562 203.054688 9.027344 202.5 9.570312 Z M 202.5 9.570312 "/>
<path style=" stroke:none;fill-rule:nonzero;fill:rgb(17.254902%,14.901961%,14.117647%);fill-opacity:1;" d="M 147.984375 1.027344 C 148.578125 0.84375 149.277344 0.972656 149.71875 1.421875 C 150.136719 1.855469 150.363281 2.507812 150.222656 3.105469 C 150.050781 3.765625 149.503906 4.238281 148.953125 4.601562 C 147.886719 5.316406 146.835938 6.0625 145.753906 6.761719 C 145.132812 7.1875 144.265625 7.265625 143.625 6.835938 C 142.804688 6.335938 142.703125 5.050781 143.390625 4.394531 C 144.070312 3.714844 144.886719 3.191406 145.628906 2.585938 C 146.394531 2.035156 147.074219 1.324219 147.984375 1.027344 Z M 147.984375 1.027344 "/>
<path style=" stroke:none;fill-rule:nonzero;fill:rgb(17.254902%,14.901961%,14.117647%);fill-opacity:1;" d="M 73.023438 7.480469 C 74.628906 7.265625 76.273438 7.375 77.855469 7.722656 C 79.050781 8.003906 80.277344 8.417969 81.1875 9.277344 C 81.804688 9.851562 82.144531 10.726562 82 11.570312 C 81.890625 12.449219 81.234375 13.273438 80.347656 13.4375 C 79.433594 13.621094 78.585938 13.144531 77.753906 12.835938 C 75.90625 12.136719 73.730469 12.019531 71.925781 12.921875 C 70.3125 13.730469 69.238281 15.34375 68.753906 17.050781 C 68.222656 18.929688 68.195312 20.964844 68.734375 22.839844 C 69.207031 24.488281 70.238281 26.035156 71.773438 26.851562 C 73.648438 27.851562 75.964844 27.738281 77.875 26.886719 C 78.664062 26.566406 79.441406 26.058594 80.328125 26.136719 C 81.207031 26.199219 81.917969 26.894531 82.214844 27.695312 C 82.59375 28.644531 82.238281 29.765625 81.53125 30.460938 C 80.660156 31.324219 79.46875 31.757812 78.304688 32.050781 C 75.925781 32.605469 73.386719 32.671875 71.046875 31.910156 C 68.949219 31.238281 67.070312 29.910156 65.722656 28.164062 C 64.203125 26.222656 63.339844 23.8125 63.109375 21.367188 C 62.871094 18.828125 63.246094 16.207031 64.339844 13.894531 C 65.167969 12.144531 66.421875 10.589844 67.996094 9.460938 C 69.472656 8.394531 71.222656 7.722656 73.023438 7.480469 Z M 73.023438 7.480469 "/>
<path style=" stroke:none;fill-rule:nonzero;fill:rgb(17.254902%,14.901961%,14.117647%);fill-opacity:1;" d="M 92.277344 7.8125 C 93.414062 7.152344 94.925781 7.226562 96.007812 7.980469 C 96.773438 8.507812 97.304688 9.316406 97.613281 10.1875 C 99.847656 16.410156 102.082031 22.636719 104.3125 28.863281 C 104.59375 29.597656 104.679688 30.476562 104.238281 31.171875 C 103.46875 32.46875 101.46875 32.636719 100.398438 31.636719 C 100.027344 31.28125 99.808594 30.800781 99.660156 30.316406 C 98.726562 27.351562 97.785156 24.382812 96.839844 21.421875 C 97.433594 21.34375 98.03125 21.296875 98.625 21.207031 C 98.90625 21.171875 99.027344 20.773438 98.824219 20.574219 C 97.273438 18.46875 95.722656 16.363281 94.160156 14.269531 C 93.988281 13.996094 93.519531 14.125 93.503906 14.445312 C 93.074219 17.03125 92.6875 19.625 92.273438 22.214844 C 92.238281 22.363281 92.257812 22.507812 92.328125 22.648438 C 93.082031 22.664062 93.777344 22.398438 94.464844 22.125 C 95.035156 23.851562 95.601562 25.574219 96.171875 27.296875 C 93.867188 27.296875 91.5625 27.292969 89.261719 27.296875 C 88.929688 28.332031 88.601562 29.367188 88.269531 30.402344 C 88.082031 31.011719 87.738281 31.609375 87.171875 31.9375 C 86.074219 32.5625 84.515625 32.320312 83.75 31.277344 C 83.207031 30.582031 83.171875 29.605469 83.492188 28.804688 C 85.765625 22.628906 88.042969 16.449219 90.320312 10.273438 C 90.679688 9.269531 91.339844 8.347656 92.277344 7.8125 Z M 92.277344 7.8125 "/>
<path style=" stroke:none;fill-rule:nonzero;fill:rgb(17.254902%,14.901961%,14.117647%);fill-opacity:1;" d="M 115.195312 7.480469 C 117.214844 7.222656 119.292969 7.425781 121.222656 8.070312 C 122.175781 8.410156 123.140625 8.898438 123.734375 9.75 C 124.359375 10.640625 124.320312 11.953125 123.605469 12.78125 C 123.191406 13.273438 122.535156 13.53125 121.902344 13.472656 C 121.113281 13.410156 120.417969 13.007812 119.679688 12.757812 C 117.945312 12.152344 115.957031 12.0625 114.261719 12.832031 C 112.679688 13.546875 111.566406 15.035156 111.023438 16.65625 C 110.390625 18.542969 110.320312 20.613281 110.796875 22.542969 C 111.21875 24.226562 112.195312 25.839844 113.714844 26.734375 C 115.570312 27.832031 117.9375 27.777344 119.878906 26.945312 C 120.734375 26.613281 121.5625 26.039062 122.519531 26.140625 C 123.914062 26.296875 124.839844 27.929688 124.40625 29.234375 C 124.046875 30.480469 122.855469 31.226562 121.714844 31.660156 C 119.847656 32.34375 117.824219 32.5625 115.847656 32.433594 C 113.597656 32.261719 111.394531 31.417969 109.640625 29.980469 C 107.957031 28.617188 106.703125 26.75 105.984375 24.703125 C 105.179688 22.425781 105 19.941406 105.367188 17.558594 C 105.757812 15.042969 106.855469 12.609375 108.628906 10.773438 C 110.355469 8.957031 112.722656 7.792969 115.195312 7.480469 Z M 115.195312 7.480469 "/>
<path style=" stroke:none;fill-rule:nonzero;fill:rgb(17.254902%,14.901961%,14.117647%);fill-opacity:1;" d="M 42.230469 7.691406 C 43.078125 7.449219 44.074219 7.5625 44.765625 8.140625 C 45.347656 8.625 45.617188 9.402344 45.621094 10.144531 C 45.625 14.164062 45.617188 18.179688 45.625 22.199219 C 45.628906 23.734375 46.160156 25.3125 47.28125 26.386719 C 48.621094 27.699219 50.714844 28.082031 52.472656 27.503906 C 53.847656 27.050781 54.960938 25.945312 55.53125 24.621094 C 55.902344 23.789062 56.0625 22.867188 56.046875 21.953125 C 56.046875 18.054688 56.050781 14.15625 56.046875 10.261719 C 56.035156 9.527344 56.253906 8.757812 56.792969 8.242188 C 57.601562 7.472656 58.910156 7.382812 59.882812 7.871094 C 60.710938 8.285156 61.144531 9.230469 61.144531 10.132812 C 61.152344 13.835938 61.144531 17.535156 61.144531 21.234375 C 61.140625 22.078125 61.175781 22.925781 61.058594 23.761719 C 60.796875 25.800781 59.867188 27.742188 58.460938 29.230469 C 56.984375 30.804688 55.003906 31.878906 52.894531 32.28125 C 50.351562 32.773438 47.632812 32.335938 45.402344 31.011719 C 43.734375 30.03125 42.351562 28.558594 41.511719 26.808594 C 40.851562 25.449219 40.527344 23.941406 40.523438 22.4375 C 40.519531 18.417969 40.523438 14.398438 40.523438 10.382812 C 40.433594 9.238281 41.066406 7.992188 42.230469 7.691406 Z M 42.230469 7.691406 "/>
<path style=" stroke:none;fill-rule:nonzero;fill:rgb(17.254902%,14.901961%,14.117647%);fill-opacity:1;" d="M 128.699219 7.660156 C 129.554688 7.453125 130.542969 7.59375 131.203125 8.210938 C 131.765625 8.726562 131.996094 9.515625 131.984375 10.261719 C 131.984375 16.707031 131.984375 23.152344 131.984375 29.601562 C 132 30.425781 131.695312 31.304688 131.003906 31.796875 C 130.125 32.417969 128.875 32.429688 127.96875 31.867188 C 127.210938 31.390625 126.863281 30.464844 126.886719 29.59375 C 126.890625 23.113281 126.882812 16.632812 126.890625 10.148438 C 126.851562 9.035156 127.578125 7.898438 128.699219 7.660156 Z M 128.699219 7.660156 "/>
<path style=" stroke:none;fill-rule:nonzero;fill:rgb(17.254902%,14.901961%,14.117647%);fill-opacity:1;" d="M 159.910156 8.453125 C 160.441406 7.78125 161.355469 7.484375 162.183594 7.601562 C 162.882812 7.75 163.558594 8.105469 164.015625 8.660156 C 167.636719 13.496094 171.230469 18.355469 174.867188 23.179688 C 174.890625 18.835938 174.867188 14.492188 174.878906 10.152344 C 174.886719 9.621094 175.011719 9.082031 175.304688 8.632812 C 176.210938 7.21875 178.601562 7.207031 179.53125 8.605469 C 179.855469 9.089844 179.980469 9.683594 179.976562 10.261719 C 179.976562 16.628906 179.972656 22.992188 179.976562 29.359375 C 179.992188 29.984375 179.910156 30.636719 179.570312 31.175781 C 179.042969 32.042969 177.914062 32.4375 176.949219 32.199219 C 176.28125 32.003906 175.648438 31.632812 175.226562 31.070312 C 172.203125 27.0625 169.175781 23.058594 166.152344 19.050781 C 165.585938 18.316406 165.046875 17.558594 164.460938 16.839844 C 164.445312 21.128906 164.460938 25.421875 164.449219 29.710938 C 164.441406 30.453125 164.171875 31.226562 163.585938 31.710938 C 162.867188 32.300781 161.835938 32.402344 160.972656 32.125 C 160.253906 31.898438 159.683594 31.285156 159.484375 30.554688 C 159.324219 30.050781 159.355469 29.515625 159.355469 28.996094 C 159.355469 22.75 159.355469 16.507812 159.355469 10.265625 C 159.347656 9.625 159.503906 8.960938 159.910156 8.453125 Z M 159.910156 8.453125 "/>
<path style=" stroke:none;fill-rule:nonzero;fill:rgb(17.254902%,14.901961%,14.117647%);fill-opacity:1;" d="M 0.726562 8.613281 C 1.261719 8.023438 2.074219 7.78125 2.847656 7.78125 C 5.902344 7.777344 8.953125 7.78125 12.003906 7.777344 C 12.90625 7.734375 13.902344 7.976562 14.46875 8.734375 C 15.101562 9.550781 15.074219 10.804688 14.398438 11.589844 C 13.878906 12.21875 13.042969 12.496094 12.25 12.488281 C 10.046875 12.492188 7.84375 12.488281 5.644531 12.488281 C 5.640625 14.148438 5.640625 15.804688 5.644531 17.464844 C 7.726562 17.464844 9.808594 17.457031 11.894531 17.464844 C 12.761719 17.46875 13.6875 17.8125 14.179688 18.566406 C 14.703125 19.34375 14.664062 20.449219 14.078125 21.179688 C 13.566406 21.851562 12.707031 22.171875 11.882812 22.171875 C 9.804688 22.179688 7.722656 22.167969 5.640625 22.175781 C 5.644531 23.902344 5.636719 25.628906 5.644531 27.359375 C 7.84375 27.355469 10.042969 27.359375 12.242188 27.355469 C 13.203125 27.296875 14.292969 27.546875 14.863281 28.394531 C 15.433594 29.207031 15.386719 30.398438 14.742188 31.15625 C 14.230469 31.789062 13.398438 32.074219 12.605469 32.066406 C 9.390625 32.066406 6.179688 32.066406 2.96875 32.066406 C 2.324219 32.074219 1.664062 31.9375 1.117188 31.578125 C 0.5 31.203125 0.109375 30.535156 0 29.824219 L 0 10.386719 C 0.078125 9.746094 0.273438 9.089844 0.726562 8.613281 Z M 0.726562 8.613281 "/>
<path style=" stroke:none;fill-rule:nonzero;fill:rgb(17.254902%,14.901961%,14.117647%);fill-opacity:1;" d="M 20.242188 7.808594 C 22.246094 7.738281 24.253906 7.800781 26.257812 7.777344 C 28.878906 7.757812 31.582031 8.363281 33.734375 9.921875 C 35.691406 11.316406 37.046875 13.453125 37.695312 15.757812 C 38.316406 17.980469 38.445312 20.339844 38.109375 22.621094 C 37.722656 25.199219 36.515625 27.699219 34.515625 29.402344 C 32.445312 31.199219 29.683594 32.027344 26.976562 32.0625 C 24.914062 32.070312 22.851562 32.066406 20.789062 32.066406 C 19.992188 32.066406 19.152344 31.789062 18.625 31.164062 C 18.226562 30.699219 18.066406 30.074219 18.074219 29.472656 C 18.074219 23.226562 18.078125 16.984375 18.074219 10.742188 C 18.054688 10.167969 18.109375 9.566406 18.398438 9.058594 C 18.757812 8.367188 19.480469 7.910156 20.242188 7.808594 M 23.175781 12.488281 C 23.175781 17.445312 23.175781 22.402344 23.175781 27.355469 C 24.242188 27.359375 25.3125 27.355469 26.378906 27.355469 C 27.417969 27.371094 28.472656 27.226562 29.425781 26.792969 C 30.921875 26.144531 32.003906 24.757812 32.5 23.222656 C 33.105469 21.363281 33.121094 19.332031 32.707031 17.429688 C 32.316406 15.648438 31.226562 13.953125 29.546875 13.171875 C 27.566406 12.191406 25.300781 12.5625 23.175781 12.488281 Z M 23.175781 12.488281 "/>
<path style=" stroke:none;fill-rule:nonzero;fill:rgb(17.254902%,14.901961%,14.117647%);fill-opacity:1;" d="M 143.609375 7.851562 C 146.101562 7.535156 148.703125 7.730469 151.039062 8.707031 C 152.90625 9.488281 154.539062 10.828125 155.644531 12.53125 C 156.984375 14.570312 157.574219 17.027344 157.621094 19.449219 C 157.675781 22.183594 157.089844 24.980469 155.644531 27.320312 C 154.539062 29.125 152.894531 30.59375 150.960938 31.441406 C 148.683594 32.457031 146.117188 32.640625 143.664062 32.359375 C 141.4375 32.101562 139.21875 31.296875 137.53125 29.777344 C 135.679688 28.140625 134.59375 25.785156 134.140625 23.382812 C 133.816406 21.660156 133.730469 19.890625 133.898438 18.144531 C 134.136719 15.710938 135.003906 13.292969 136.621094 11.4375 C 138.375 9.382812 140.964844 8.183594 143.609375 7.851562 M 144.554688 12.136719 C 142.792969 12.355469 141.148438 13.417969 140.292969 14.992188 C 139.246094 16.835938 139.082031 19.035156 139.230469 21.109375 C 139.359375 22.886719 139.769531 24.738281 140.917969 26.148438 C 141.796875 27.238281 143.132812 27.878906 144.503906 28.054688 C 146.085938 28.265625 147.792969 28.109375 149.175781 27.257812 C 150.292969 26.582031 151.082031 25.464844 151.542969 24.253906 C 152.226562 22.421875 152.355469 20.421875 152.191406 18.488281 C 152.003906 16.484375 151.226562 14.394531 149.546875 13.183594 C 148.121094 12.144531 146.265625 11.898438 144.554688 12.136719 Z M 144.554688 12.136719 "/>
</g>
</svg>
